<svg width="362" height="50" viewBox="0 0 362 50" fill="none" xmlns="http://www.w3.org/2000/svg">
<circle cx="25" cy="25" r="25" fill="black"/>
<path d="M29.7045 17.3149C28.4413 15.7864 27.0194 14.4101 25.4653 13.2113C25.3278 13.1103 25.1639 13.0562 24.9959 13.0562C24.8279 13.0562 24.664 13.1103 24.5265 13.2113C22.9753 14.4106 21.5562 15.7869 20.2955 17.3149C17.484 20.6974 16 24.2632 16 27.6275C16 30.1281 16.9482 32.5263 18.636 34.2946C20.3239 36.0628 22.6131 37.0562 25 37.0562C27.3869 37.0562 29.6761 36.0628 31.364 34.2946C33.0518 32.5263 34 30.1281 34 27.6275C34 24.2632 32.516 20.6974 29.7045 17.3149ZM25 35.3419C23.0477 35.3396 21.176 34.5261 19.7955 33.0799C18.415 31.6336 17.6385 29.6728 17.6364 27.6275C17.6364 21.4956 23.3094 16.3774 25 14.9845C26.6906 16.3774 32.3636 21.4935 32.3636 27.6275C32.3615 29.6728 31.585 31.6336 30.2045 33.0799C28.824 34.5261 26.9523 35.3396 25 35.3419ZM30.716 28.6282C30.5039 29.8697 29.9337 31.0133 29.0824 31.905C28.231 32.7967 27.1393 33.3938 25.9542 33.6158C25.9092 33.6233 25.8637 33.6273 25.8182 33.6275C25.6129 33.6275 25.4152 33.5466 25.2642 33.401C25.1132 33.2554 25.02 33.0556 25.003 32.8414C24.986 32.6271 25.0465 32.4139 25.1725 32.2442C25.2985 32.0745 25.4808 31.9606 25.6832 31.925C27.3778 31.6261 28.8158 30.1197 29.1032 28.3411C29.1395 28.1169 29.2594 27.917 29.4364 27.7854C29.6135 27.6537 29.8331 27.6012 30.0472 27.6393C30.2612 27.6774 30.452 27.8029 30.5776 27.9884C30.7032 28.1739 30.7534 28.404 30.717 28.6282H30.716Z" fill="white"/>
<circle cx="91" cy="25" r="25" fill="black"/>
<path d="M102.768 18.0471L98.0091 13.2886C97.9354 13.2149 97.8479 13.1564 97.7516 13.1166C97.6553 13.0767 97.5522 13.0562 97.4479 13.0562C97.3437 13.0562 97.2405 13.0767 97.1443 13.1166C97.048 13.1564 96.9605 13.2149 96.8868 13.2886C96.8131 13.3623 96.7547 13.4497 96.7148 13.546C96.6749 13.6423 96.6544 13.7455 96.6544 13.8497C96.6544 13.9539 96.6749 14.0571 96.7148 14.1534C96.7547 14.2496 96.8131 14.3371 96.8868 14.4108L98.706 16.2289L91.6673 23.2676L88.259 19.8653C87.9616 19.568 87.5583 19.401 87.1378 19.401C86.7173 19.401 86.314 19.568 86.0166 19.8653L80.465 25.4169C80.317 25.5638 80.1998 25.7387 80.12 25.9314C80.0401 26.124 79.9994 26.3306 80 26.5391V34.47C80 34.8906 80.1671 35.2941 80.4646 35.5916C80.7621 35.889 81.1655 36.0561 81.5862 36.0561H89.5171C89.7254 36.0568 89.9319 36.016 90.1244 35.9362C90.3168 35.8564 90.4915 35.7391 90.6383 35.5912L96.1899 30.0396C96.4871 29.7421 96.6541 29.3389 96.6541 28.9184C96.6541 28.4979 96.4871 28.0946 96.1899 27.7971L92.7886 24.3918L99.8272 17.3531L101.645 19.1723C101.719 19.246 101.807 19.3044 101.903 19.3443C101.999 19.3842 102.102 19.4047 102.206 19.4047C102.311 19.4047 102.414 19.3842 102.51 19.3443C102.606 19.3044 102.694 19.246 102.768 19.1723C102.841 19.0986 102.9 19.0111 102.94 18.9149C102.979 18.8186 103 18.7154 103 18.6112C103 18.507 102.979 18.4038 102.94 18.3075C102.9 18.2112 102.841 18.1238 102.768 18.0501V18.0471ZM95.0687 28.9184L89.5171 34.47H81.5862V26.5391L87.1378 20.9875L90.5421 24.3918L86.5767 28.3572C86.503 28.4309 86.4446 28.5184 86.4047 28.6147C86.3648 28.711 86.3443 28.8141 86.3443 28.9184C86.3443 29.0226 86.3648 29.1257 86.4047 29.222C86.4446 29.3183 86.503 29.4058 86.5767 29.4795C86.7255 29.6283 86.9273 29.7119 87.1378 29.7119C87.242 29.7119 87.3452 29.6914 87.4415 29.6515C87.5377 29.6116 87.6252 29.5532 87.6989 29.4795L91.6643 25.514L95.0687 28.9184Z" fill="white"/>
<circle cx="157" cy="25" r="25" fill="black"/>
<path d="M168.963 15.8773C168.951 15.6734 168.869 15.481 168.73 15.3366C168.591 15.1922 168.407 15.1059 168.211 15.0939C163.034 14.7814 158.877 16.4211 157.091 19.492C155.911 21.5223 155.913 23.988 157.075 26.3402C156.413 27.1604 155.93 28.1198 155.658 29.1528L154.03 27.4517C154.813 25.7506 154.783 23.9776 153.93 22.5046C152.61 20.2348 149.563 19.0181 145.779 19.2493C145.583 19.2612 145.399 19.3476 145.26 19.492C145.121 19.6364 145.038 19.8288 145.027 20.0327C144.804 23.9734 145.973 27.1475 148.153 28.5226C148.872 28.9802 149.698 29.2224 150.541 29.2226C151.359 29.2121 152.164 29.0103 152.897 28.632L155.398 31.2362V34.2228C155.398 34.4438 155.482 34.6558 155.632 34.8121C155.782 34.9684 155.986 35.0562 156.198 35.0562C156.41 35.0562 156.614 34.9684 156.764 34.8121C156.914 34.6558 156.998 34.4438 156.998 34.2228V31.1508C156.994 29.825 157.428 28.5381 158.225 27.5048C159.254 28.065 160.396 28.3648 161.557 28.3799C162.679 28.3836 163.781 28.0642 164.74 27.4569C167.689 25.5985 169.267 21.2692 168.963 15.8773ZM148.978 27.0975C147.443 26.1298 146.575 23.8391 146.596 20.889C149.429 20.864 151.628 21.7713 152.557 23.3693C153.042 24.2026 153.121 25.1745 152.803 26.1756L150.362 23.6328C150.211 23.4831 150.009 23.4009 149.801 23.4037C149.592 23.4065 149.393 23.494 149.245 23.6477C149.097 23.8014 149.013 24.009 149.011 24.2263C149.008 24.4436 149.087 24.6534 149.231 24.811L151.672 27.3538C150.711 27.685 149.779 27.6027 148.978 27.0975ZM163.911 26.0329C162.571 26.8777 160.996 26.9423 159.395 26.2412L164.765 20.6473C164.909 20.4897 164.988 20.2799 164.985 20.0626C164.983 19.8453 164.898 19.6377 164.751 19.484C164.603 19.3303 164.404 19.2428 164.195 19.24C163.987 19.2372 163.785 19.3194 163.634 19.4691L158.263 25.0558C157.587 23.389 157.648 21.7473 158.463 20.3525C159.857 17.9566 163.164 16.6211 167.398 16.7242C167.494 21.1327 166.213 24.5808 163.911 26.0329Z" fill="white"/>
</svg>
