<svg width="208" height="74" viewBox="0 0 208 74" fill="none" xmlns="http://www.w3.org/2000/svg">
<path d="M78.9961 5.43493C78.9961 4.05406 77.5232 3.18324 76.3269 3.85483L76.3265 3.85501L76.3256 3.85536L76.3265 3.85677L42.1682 23.0238L42.168 23.0236L29.575 30.138L29.5721 30.1397C27.4795 31.3169 27.0787 33.3153 27.6603 34.365C28.2409 35.4129 30.1377 36.1185 32.2335 34.9406L44.0465 28.296V28.2959C45.9093 27.2482 48.1773 27.2519 50.0349 28.2987L50.1229 28.3494L50.1233 28.3496L78.9961 45.2641V5.43493ZM3.5922 48.4093C3.59222 49.0726 3.95269 49.6831 4.5334 50.0003L40.4382 69.5756L40.4885 69.6021C41.0123 69.8661 41.6328 69.8572 42.1501 69.5756L46.7735 67.0548L35.9923 60.7386C35.1349 60.2362 34.8443 59.1289 35.343 58.2653C35.8418 57.4017 36.9412 57.1088 37.7986 57.6111L49.906 64.7044C50.0863 64.8101 50.2414 64.9428 50.3695 65.0941L57.7865 61.0506L35.6961 48.1096C34.8386 47.6073 34.5479 46.5 35.0466 45.6363C35.5453 44.7727 36.6447 44.4798 37.5022 44.9821L60.7401 58.5953C60.9753 58.7331 61.1676 58.9166 61.313 59.1279L68.7027 55.0989L46.1296 41.8739C45.2721 41.3715 44.9813 40.264 45.4801 39.4004C45.9789 38.5368 47.0783 38.244 47.9357 38.7464L72.0017 52.8461C72.1306 52.9216 72.2464 53.0111 72.349 53.1111L78.0549 50.0003L78.0561 49.9998C78.3542 49.8376 78.5943 49.5964 78.7574 49.3099L48.3174 31.4773V31.4771C47.5401 31.0222 46.5818 31.0141 45.7981 31.4548L33.985 38.0996L33.9847 38.0998C30.7642 39.9101 26.3785 39.476 24.5236 36.128C22.6702 32.7827 24.5992 28.7945 27.8176 26.9823L37.6146 21.4478L6.26179 3.85501L6.26144 3.85483C5.06515 3.18322 3.59226 4.05405 3.5922 5.43493V48.4093ZM82.5883 48.4093C82.5883 50.3994 81.5064 52.2338 79.7647 53.1821L79.7649 53.1823L43.859 72.7581L43.858 72.7588C42.2583 73.6295 40.3301 73.6295 38.7303 72.7588L38.7293 72.7581L2.82342 53.1823L2.82272 53.1819C1.08333 52.2327 2.20168e-05 50.4013 0 48.4093V5.43493C5.62191e-05 1.29478 4.418 -1.32201 8.01001 0.694275L41.294 19.3705L74.5783 0.694275C78.1703 -1.32196 82.5883 1.2948 82.5883 5.43493V48.4093Z" fill="#292929"/>
<path d="M104.313 30.571C100.663 30.571 97.9082 29.5813 96.0487 27.602C94.2122 25.6226 93.2939 22.9412 93.2939 19.5578C93.2939 17.1181 93.6957 15.0121 94.4992 13.2399C95.3026 11.4446 96.5193 10.0637 98.1493 9.09699C99.8021 8.13031 101.891 7.64697 104.416 7.64697C105.725 7.64697 106.907 7.73904 107.963 7.92317C109.042 8.08428 110.052 8.32595 110.993 8.64818V11.8934C109.111 11.203 107.022 10.8577 104.726 10.8577C101.903 10.8577 99.9169 11.6057 98.7691 13.1018C97.6442 14.5978 97.0818 16.7499 97.0818 19.5578C97.0818 22.1126 97.6787 24.0575 98.8724 25.3924C100.066 26.7273 101.914 27.3948 104.416 27.3948C106.391 27.3948 107.986 27.1646 109.203 26.7043V20.49H103.659V18.0388H112.405V28.7413C111.694 29.2016 110.672 29.6274 109.341 30.0187C108.032 30.3869 106.356 30.571 104.313 30.571Z" fill="#292929"/>
<path d="M116.042 30.2258V13.8613H119.486L119.693 15.7602C120.473 15.2538 121.403 14.7935 122.482 14.3792C123.561 13.9649 124.628 13.6772 125.684 13.5161V16.3816C125.041 16.4967 124.341 16.6693 123.584 16.8995C122.849 17.1066 122.149 17.3483 121.483 17.6245C120.817 17.8776 120.255 18.1423 119.796 18.4185V30.2258H116.042Z" fill="#292929"/>
<path d="M135.562 30.571C132.623 30.571 130.465 29.8345 129.088 28.3615C127.733 26.8885 127.056 24.7825 127.056 22.0436C127.056 19.3046 127.745 17.1987 129.122 15.7256C130.5 14.2526 132.646 13.5161 135.562 13.5161C138.5 13.5161 140.658 14.2526 142.035 15.7256C143.413 17.1987 144.101 19.3046 144.101 22.0436C144.101 24.7825 143.413 26.8885 142.035 28.3615C140.681 29.8345 138.523 30.571 135.562 30.571ZM135.562 27.3948C137.283 27.3948 138.5 26.9805 139.212 26.1519C139.946 25.3003 140.314 23.9309 140.314 22.0436C140.314 20.1562 139.946 18.7983 139.212 17.9697C138.5 17.1411 137.283 16.7268 135.562 16.7268C133.863 16.7268 132.646 17.1411 131.912 17.9697C131.2 18.7983 130.844 20.1562 130.844 22.0436C130.844 23.9309 131.2 25.3003 131.912 26.1519C132.646 26.9805 133.863 27.3948 135.562 27.3948Z" fill="#292929"/>
<path d="M156.018 30.571C153.171 30.571 150.967 29.869 149.406 28.4651C147.845 27.0611 147.065 24.9091 147.065 22.009C147.065 19.3852 147.731 17.3137 149.062 15.7947C150.393 14.2756 152.414 13.5161 155.123 13.5161C157.602 13.5161 159.461 14.172 160.701 15.484C161.964 16.7729 162.595 18.4415 162.595 20.49V23.5281H150.646C150.83 25.1162 151.404 26.2095 152.368 26.8079C153.332 27.4063 154.801 27.7055 156.775 27.7055C157.602 27.7055 158.451 27.625 159.324 27.4639C160.196 27.3027 160.953 27.0956 161.596 26.8424V29.6044C160.862 29.9266 160.012 30.1683 159.048 30.3294C158.107 30.4905 157.097 30.571 156.018 30.571ZM150.646 21.0769H159.289V19.9376C159.289 18.8098 158.979 17.9352 158.359 17.3137C157.74 16.6693 156.695 16.3471 155.226 16.3471C153.481 16.3471 152.276 16.7268 151.61 17.4864C150.967 18.2459 150.646 19.4427 150.646 21.0769Z" fill="#292929"/>
<path d="M166.249 30.2258V13.8613H169.692L169.864 15.5875C170.599 15.0121 171.471 14.5288 172.481 14.1375C173.515 13.7232 174.651 13.5161 175.891 13.5161C178.003 13.5161 179.541 14.0109 180.505 15.0006C181.469 15.9903 181.951 17.5324 181.951 19.6269V30.2258H178.232V19.7995C178.232 18.5336 177.968 17.6475 177.44 17.1411C176.935 16.6348 175.971 16.3816 174.548 16.3816C173.698 16.3816 172.86 16.5542 172.034 16.8995C171.23 17.2447 170.553 17.6935 170.002 18.2459V30.2258H166.249Z" fill="#292929"/>
<path d="M194.084 30.571C191.238 30.571 189.034 29.869 187.473 28.4651C185.912 27.0611 185.131 24.9091 185.131 22.009C185.131 19.3852 185.797 17.3137 187.129 15.7947C188.46 14.2756 190.48 13.5161 193.189 13.5161C195.668 13.5161 197.528 14.172 198.768 15.484C200.03 16.7729 200.662 18.4415 200.662 20.49V23.5281H188.713C188.896 25.1162 189.47 26.2095 190.434 26.8079C191.399 27.4063 192.868 27.7055 194.842 27.7055C195.668 27.7055 196.518 27.625 197.39 27.4639C198.263 27.3027 199.02 27.0956 199.663 26.8424V29.6044C198.928 29.9266 198.079 30.1683 197.115 30.3294C196.174 30.4905 195.163 30.571 194.084 30.571ZM188.713 21.0769H197.356V19.9376C197.356 18.8098 197.046 17.9352 196.426 17.3137C195.806 16.6693 194.762 16.3471 193.292 16.3471C191.548 16.3471 190.343 16.7268 189.677 17.4864C189.034 18.2459 188.713 19.4427 188.713 21.0769Z" fill="#292929"/>
<path d="M101.799 58.159L93.3284 35.9254H97.2195L103.865 54.1197L110.511 35.9254H114.403L106 58.159H101.799Z" fill="#292929"/>
<path d="M117.924 38.3766V35.2695H122.022V38.3766H117.924ZM118.234 58.159V44.66H115.755L116.099 41.7945H121.988V58.159H118.234Z" fill="#292929"/>
<path d="M126.366 58.159V41.7945H129.81L129.982 43.5207C130.716 42.9453 131.589 42.462 132.599 42.0707C133.632 41.6564 134.768 41.4493 136.008 41.4493C138.12 41.4493 139.658 41.9441 140.622 42.9338C141.586 43.9235 142.068 45.4656 142.068 47.5601V58.159H138.35V47.7327C138.35 46.4668 138.086 45.5807 137.558 45.0743C137.052 44.568 136.088 44.3148 134.665 44.3148C133.816 44.3148 132.978 44.4874 132.151 44.8327C131.348 45.1779 130.671 45.6267 130.12 46.1791V58.159H126.366Z" fill="#292929"/>
<path d="M152.885 64.2353C151.669 64.2353 150.452 64.1547 149.235 63.9936C148.019 63.8555 146.986 63.6368 146.136 63.3376V60.4376C147.054 60.7368 148.11 60.967 149.304 61.1281C150.498 61.2892 151.634 61.3698 152.713 61.3698C154.366 61.3698 155.571 61.2777 156.329 61.0936C157.086 60.9094 157.465 60.4951 157.465 59.8507C157.465 59.3673 157.282 59.0221 156.914 58.815C156.547 58.6308 155.847 58.5388 154.814 58.5388H150.406C147.445 58.5388 145.964 57.4915 145.964 55.3971C145.964 54.7296 146.159 54.1082 146.549 53.5328C146.94 52.9574 147.559 52.5201 148.409 52.2208C147.468 51.7605 146.767 51.1276 146.308 50.322C145.872 49.5164 145.654 48.5498 145.654 47.422C145.654 45.3275 146.274 43.8084 147.514 42.8648C148.776 41.9211 150.659 41.4493 153.161 41.4493C153.689 41.4493 154.24 41.4953 154.814 41.5874C155.388 41.6564 155.835 41.7255 156.157 41.7945H162.148L162.045 44.2458H159.29C159.726 44.614 160.048 45.0743 160.254 45.6267C160.461 46.1791 160.564 46.7775 160.564 47.422C160.564 49.1712 160.036 50.5522 158.98 51.5649C157.924 52.5546 156.329 53.0494 154.194 53.0494C153.827 53.0494 153.482 53.0379 153.161 53.0149C152.862 52.9689 152.53 52.9228 152.162 52.8768C151.474 52.9459 150.854 53.13 150.303 53.4292C149.752 53.7284 149.476 54.1312 149.476 54.6375C149.476 54.9828 149.614 55.236 149.89 55.3971C150.165 55.5352 150.624 55.6042 151.267 55.6042H155.847C157.477 55.6042 158.728 55.961 159.6 56.6745C160.495 57.3649 160.943 58.3777 160.943 59.7126C160.943 61.3237 160.243 62.4745 158.843 63.165C157.465 63.8785 155.479 64.2353 152.885 64.2353ZM153.161 50.6673C154.653 50.6673 155.686 50.4141 156.26 49.9077C156.857 49.4014 157.155 48.5383 157.155 47.3184C157.155 46.0986 156.857 45.2124 156.26 44.66C155.686 44.1077 154.653 43.8315 153.161 43.8315C151.76 43.8315 150.739 44.0961 150.096 44.6255C149.453 45.1549 149.132 46.0525 149.132 47.3184C149.132 48.4922 149.43 49.3438 150.027 49.8732C150.647 50.4026 151.692 50.6673 153.161 50.6673Z" fill="#292929"/>
<path d="M173.269 58.5042C170.422 58.5042 168.218 57.8023 166.657 56.3983C165.096 54.9943 164.316 52.8423 164.316 49.9422C164.316 47.3184 164.982 45.247 166.313 43.7279C167.645 42.2088 169.665 41.4493 172.374 41.4493C174.853 41.4493 176.712 42.1053 177.952 43.4172C179.215 44.7061 179.846 46.3747 179.846 48.4232V51.4613H167.897C168.081 53.0494 168.655 54.1427 169.619 54.7411C170.583 55.3395 172.052 55.6387 174.026 55.6387C174.853 55.6387 175.702 55.5582 176.575 55.3971C177.447 55.236 178.205 55.0288 178.847 54.7756V57.5376C178.113 57.8598 177.263 58.1015 176.299 58.2626C175.358 58.4237 174.348 58.5042 173.269 58.5042ZM167.897 49.0101H176.54V47.8708C176.54 46.743 176.23 45.8684 175.61 45.247C174.991 44.6025 173.946 44.2803 172.477 44.2803C170.732 44.2803 169.527 44.66 168.861 45.4196C168.218 46.1791 167.897 47.3759 167.897 49.0101Z" fill="#292929"/>
<path d="M183.5 58.159V41.7945H186.943L187.15 43.6934C187.93 43.187 188.86 42.7267 189.939 42.3124C191.018 41.8981 192.086 41.6104 193.142 41.4493V44.3148C192.499 44.4299 191.799 44.6025 191.041 44.8327C190.306 45.0398 189.606 45.2815 188.941 45.5577C188.275 45.8108 187.712 46.0755 187.253 46.3517V58.159H183.5Z" fill="#292929"/>
<path d="M201.147 58.5042C200.023 58.5042 198.944 58.4237 197.911 58.2626C196.9 58.1015 196.063 57.9058 195.397 57.6757V54.4994C196.177 54.7986 197.038 55.0288 197.979 55.1899C198.921 55.351 199.816 55.4316 200.665 55.4316C201.951 55.4316 202.869 55.3165 203.42 55.0863C203.971 54.8562 204.247 54.4074 204.247 53.7399C204.247 53.2566 204.074 52.8768 203.73 52.6006C203.409 52.3244 202.915 52.0712 202.249 51.8411C201.607 51.6109 200.78 51.3347 199.77 51.0125C198.806 50.6903 197.968 50.345 197.256 49.9768C196.545 49.5855 195.994 49.0906 195.603 48.4922C195.213 47.8938 195.018 47.1113 195.018 46.1446C195.018 44.6485 195.557 43.4977 196.636 42.6922C197.715 41.8636 199.449 41.4493 201.836 41.4493C202.777 41.4493 203.673 41.5183 204.522 41.6564C205.371 41.7945 206.095 41.9672 206.691 42.1743V45.316C206.049 45.0628 205.337 44.8672 204.556 44.7291C203.799 44.591 203.087 44.5219 202.421 44.5219C201.228 44.5219 200.321 44.6255 199.701 44.8327C199.104 45.0398 198.806 45.4541 198.806 46.0755C198.806 46.72 199.116 47.1803 199.736 47.4565C200.378 47.7097 201.4 48.0664 202.8 48.5268C204.086 48.918 205.107 49.3323 205.865 49.7696C206.623 50.2069 207.162 50.7363 207.483 51.3577C207.828 51.9562 208 52.7387 208 53.7054C208 55.3165 207.415 56.5249 206.244 57.3304C205.073 58.113 203.374 58.5042 201.147 58.5042Z" fill="#292929"/>
</svg>
