<svg width="226" height="226" viewBox="0 0 226 226" fill="none" xmlns="http://www.w3.org/2000/svg">
<circle cx="113" cy="113" r="113" fill="#DED8CA"/>
<path d="M132.688 107.375C132.688 108.121 132.391 108.836 131.864 109.364C131.336 109.891 130.621 110.188 129.875 110.188H107.375C106.629 110.188 105.914 109.891 105.386 109.364C104.859 108.836 104.562 108.121 104.562 107.375C104.562 106.629 104.859 105.914 105.386 105.386C105.914 104.859 106.629 104.562 107.375 104.562H129.875C130.621 104.562 131.336 104.859 131.864 105.386C132.391 105.914 132.688 106.629 132.688 107.375ZM129.875 115.812H107.375C106.629 115.812 105.914 116.109 105.386 116.636C104.859 117.164 104.562 117.879 104.562 118.625C104.562 119.371 104.859 120.086 105.386 120.614C105.914 121.141 106.629 121.438 107.375 121.438H129.875C130.621 121.438 131.336 121.141 131.864 120.614C132.391 120.086 132.688 119.371 132.688 118.625C132.688 117.879 132.391 117.164 131.864 116.636C131.336 116.109 130.621 115.812 129.875 115.812ZM146.75 84.875V141.125C146.75 142.617 146.157 144.048 145.102 145.102C144.048 146.157 142.617 146.75 141.125 146.75H84.875C83.3832 146.75 81.9524 146.157 80.8975 145.102C79.8426 144.048 79.25 142.617 79.25 141.125V84.875C79.25 83.3832 79.8426 81.9524 80.8975 80.8975C81.9524 79.8426 83.3832 79.25 84.875 79.25H141.125C142.617 79.25 144.048 79.8426 145.102 80.8975C146.157 81.9524 146.75 83.3832 146.75 84.875ZM84.875 141.125H93.3125V84.875H84.875V141.125ZM141.125 141.125V84.875H98.9375V141.125H141.125Z" fill="#36392B"/>
</svg>
