<svg width="226" height="226" viewBox="0 0 226 226" fill="none" xmlns="http://www.w3.org/2000/svg">
<circle cx="113" cy="113" r="113" fill="#EAF0D8"/>
<path d="M112.938 90.5C110.156 90.5 107.437 91.3248 105.125 92.87C102.812 94.4152 101.01 96.6114 99.9454 99.181C98.8811 101.751 98.6026 104.578 99.1452 107.306C99.6878 110.034 101.027 112.54 102.994 114.506C104.96 116.473 107.466 117.812 110.194 118.355C112.922 118.897 115.749 118.619 118.319 117.555C120.889 116.49 123.085 114.688 124.63 112.375C126.175 110.063 127 107.344 127 104.562C127 100.833 125.518 97.256 122.881 94.6188C120.244 91.9816 116.667 90.5 112.938 90.5ZM112.938 113C111.269 113 109.637 112.505 108.25 111.578C106.862 110.651 105.781 109.333 105.142 107.791C104.504 106.25 104.337 104.553 104.662 102.916C104.988 101.28 105.791 99.7763 106.971 98.5963C108.151 97.4163 109.655 96.6127 111.291 96.2871C112.928 95.9616 114.625 96.1287 116.166 96.7673C117.708 97.4059 119.026 98.4873 119.953 99.8749C120.88 101.262 121.375 102.894 121.375 104.562C121.375 106.8 120.486 108.946 118.904 110.529C117.321 112.111 115.175 113 112.938 113ZM112.938 73.625C104.735 73.6343 96.8716 76.8968 91.0717 82.6967C85.2718 88.4966 82.0093 96.3602 82 104.562C82 115.602 87.1012 127.302 96.7656 138.4C101.108 143.416 105.996 147.932 111.338 151.865C111.811 152.197 112.374 152.374 112.952 152.374C113.529 152.374 114.092 152.197 114.565 151.865C119.898 147.93 124.776 143.414 129.109 138.4C138.76 127.302 143.875 115.602 143.875 104.562C143.866 96.3602 140.603 88.4966 134.803 82.6967C129.003 76.8968 121.14 73.6343 112.938 73.625ZM112.938 146.047C107.126 141.477 87.625 124.689 87.625 104.562C87.625 97.8492 90.2918 91.4109 95.0389 86.6639C99.7859 81.9168 106.224 79.25 112.938 79.25C119.651 79.25 126.089 81.9168 130.836 86.6639C135.583 91.4109 138.25 97.8492 138.25 104.562C138.25 124.682 118.749 141.477 112.938 146.047Z" fill="#36392B"/>
</svg>
