<svg width="226" height="226" viewBox="0 0 226 226" fill="none" xmlns="http://www.w3.org/2000/svg">
<circle cx="113" cy="113" r="113" fill="#FFEDB3"/>
<g clip-path="url(#clip0_195_9389)">
<path d="M118.625 123.435C123.034 120.689 126.429 116.581 128.295 111.734C130.162 106.887 130.399 101.564 128.971 96.57C127.543 91.576 124.528 87.1829 120.381 84.0555C116.233 80.928 111.181 79.2363 105.986 79.2363C100.792 79.2363 95.7394 80.928 91.5923 84.0555C87.4452 87.1829 84.4295 91.576 83.0014 96.57C81.5734 101.564 81.8107 106.887 83.6774 111.734C85.5442 116.581 88.9388 120.689 93.3477 123.435C86.088 125.811 79.5559 130.252 74.3036 136.502C73.8234 137.073 73.5897 137.812 73.654 138.555C73.7183 139.299 74.0753 139.986 74.6464 140.466C75.2174 140.946 75.9559 141.18 76.6993 141.116C77.4426 141.051 78.13 140.695 78.6102 140.123C85.6661 131.7 95.3903 127.063 105.969 127.063C116.547 127.063 126.272 131.7 133.345 140.123C133.825 140.695 134.513 141.051 135.256 141.116C135.999 141.18 136.738 140.946 137.309 140.466C137.88 139.986 138.237 139.299 138.301 138.555C138.365 137.812 138.132 137.073 137.652 136.502C132.399 130.252 125.867 125.811 118.625 123.435ZM87.6876 103.157C87.6876 99.541 88.7597 96.0065 90.7685 93.0001C92.7773 89.9938 95.6324 87.6506 98.9729 86.267C102.313 84.8833 105.989 84.5213 109.535 85.2267C113.082 85.932 116.339 87.6732 118.896 90.2298C121.452 92.7865 123.193 96.0439 123.899 99.5901C124.604 103.136 124.242 106.812 122.858 110.153C121.475 113.493 119.132 116.348 116.125 118.357C113.119 120.366 109.585 121.438 105.969 121.438C101.122 121.432 96.4754 119.504 93.0482 116.077C89.621 112.65 87.6931 108.003 87.6876 103.157ZM157.177 114.99L145.927 126.24C145.666 126.502 145.356 126.709 145.015 126.851C144.673 126.992 144.307 127.065 143.938 127.065C143.568 127.065 143.202 126.992 142.861 126.851C142.519 126.709 142.209 126.502 141.948 126.24L136.323 120.615C135.795 120.087 135.498 119.372 135.498 118.625C135.498 117.879 135.795 117.163 136.323 116.636C136.85 116.108 137.566 115.811 138.313 115.811C139.059 115.811 139.775 116.108 140.302 116.636L143.938 120.274L153.198 111.011C153.725 110.483 154.441 110.186 155.188 110.186C155.934 110.186 156.65 110.483 157.177 111.011C157.705 111.538 158.002 112.254 158.002 113C158.002 113.747 157.705 114.462 157.177 114.99Z" fill="#C9A52E"/>
</g>
<defs>
<clipPath id="clip0_195_9389">
<rect width="90" height="90" fill="white" transform="translate(68 68)"/>
</clipPath>
</defs>
</svg>
